<?xml version="1.0" encoding="UTF-8" standalone="no"?>
<!DOCTYPE svg PUBLIC "-//W3C//DTD SVG 1.1//EN" "http://www.w3.org/Graphics/SVG/1.1/DTD/svg11.dtd">
<svg width="100%" height="100%" viewBox="0 0 1024 768" version="1.1" xmlns="http://www.w3.org/2000/svg" xmlns:xlink="http://www.w3.org/1999/xlink" xml:space="preserve" xmlns:serif="http://www.serif.com/" style="fill-rule:evenodd;clip-rule:evenodd;stroke-linejoin:round;stroke-miterlimit:2;">
    <g transform="matrix(0.500982,0,0,0.858097,-636.92,-2941.59)">
        <path d="M1367.71,3779.09C1402.27,3795.59 1427.2,3803.84 1442.5,3803.84C1450.85,3803.84 1457.81,3802.11 1463.38,3798.64C1468.94,3795.17 1471.73,3791 1471.73,3786.12C1471.73,3780.87 1469.41,3777.03 1464.77,3774.59C1460.13,3772.16 1442.74,3765.59 1412.59,3754.91C1388.46,3746.28 1371.07,3736.11 1360.4,3724.39C1349.73,3712.67 1344.4,3698.09 1344.4,3680.66C1344.4,3655.72 1355.01,3635.19 1376.23,3619.06C1397.45,3602.94 1424.53,3594.87 1457.46,3594.87C1489.47,3594.87 1528.66,3605.19 1575.05,3625.81L1536.08,3684.03C1505.93,3669.03 1481.23,3661.53 1461.98,3661.53C1445.29,3661.53 1436.94,3666.97 1436.94,3677.84C1436.94,3683.09 1440.01,3687.64 1446.16,3691.48C1452.3,3695.33 1463.49,3699.59 1479.73,3704.28C1510.11,3712.91 1532.2,3723.22 1546,3735.22C1559.8,3747.22 1566.7,3762.41 1566.7,3780.78C1566.7,3807.03 1555.8,3828.59 1534,3845.47C1512.2,3862.34 1484.37,3870.78 1450.5,3870.78C1413.86,3870.78 1374.67,3860.37 1332.92,3839.56L1367.71,3779.09Z" style="fill:rgb(20,80,135);fill-rule:nonzero;"/>
    </g>
    <g transform="matrix(0.551368,-6.38281e-33,6.79613e-33,0.914716,-360.797,-3153.2)">
        <rect x="1358.66" y="3466.34" width="101.234" height="396.281" style="fill:rgb(20,80,135);fill-rule:nonzero;"/>
    </g>
    <g transform="matrix(0.551368,-6.38281e-33,-6.79613e-33,0.597375,-422.297,-1927.46)">
        <rect x="1358.66" y="3466.34" width="101.234" height="396.281" style="fill:rgb(20,80,135);fill-rule:nonzero;"/>
    </g>
    <g transform="matrix(0.551368,-6.38281e-33,6.79613e-33,0.914716,-299.201,-3153.22)">
        <rect x="1358.66" y="3466.34" width="101.234" height="396.281" style="fill:rgb(20,80,135);fill-rule:nonzero;"/>
    </g>
    <g transform="matrix(0.599237,0,-6.79613e-33,0.473931,-970.38,-1872.16)">
        <ellipse cx="2211.27" cy="4119.82" rx="46.558" ry="55.287" style="fill:rgb(20,80,135);"/>
    </g>
    <g transform="matrix(0.552968,-6.38281e-33,6.79613e-33,0.914716,-591.869,-3153.23)">
        <path d="M1355.88,3466.34L1456.77,3466.34L1456.77,3696.12L1458.51,3696.12L1527.39,3603.87L1648.45,3603.87L1545.82,3719.75L1650.54,3862.62L1534,3862.62L1458.51,3736.34L1456.77,3736.34L1456.77,3862.62L1355.88,3862.62L1355.88,3466.34Z" style="fill:rgb(20,80,135);fill-rule:nonzero;"/>
    </g>
    <g transform="matrix(0.551368,-6.38281e-33,6.79613e-33,0.914716,-360.536,-2786.4)">
        <rect x="1358.66" y="3466.34" width="101.234" height="396.281" style="fill:rgb(40,160,225);fill-rule:nonzero;"/>
    </g>
    <g transform="matrix(0.551368,-6.38281e-33,-6.79613e-33,0.597375,-422.036,-1560.66)">
        <rect x="1358.66" y="3466.34" width="101.234" height="396.281" style="fill:rgb(40,160,225);fill-rule:nonzero;"/>
    </g>
    <g transform="matrix(0.551368,-6.38281e-33,6.79613e-33,0.914716,-298.94,-2786.41)">
        <rect x="1358.66" y="3466.34" width="101.234" height="396.281" style="fill:rgb(40,160,225);fill-rule:nonzero;"/>
    </g>
    <g transform="matrix(0.599237,0,-6.79613e-33,0.473931,-970.38,-1505.35)">
        <ellipse cx="2211.27" cy="4119.82" rx="46.558" ry="55.287" style="fill:rgb(40,160,225);"/>
    </g>
    <g transform="matrix(0.377145,0,0,0.630192,-476.774,-1853.7)">
        <path d="M1537.7,3750.79L1664.36,3750.79L1724.19,3977.19L1711.82,3977.2L1766.09,3750.79L1884.78,3750.79L1952.62,3975.55L1941.14,3975.29L1985.11,3750.79L2116.94,3751L2005.61,4126.47L1882.48,4126.26L1838.3,3958.35C1833.43,3939.97 1829.37,3922.26 1826.12,3905.19L1824.73,3905.19C1818.93,3934.26 1814.76,3953.66 1812.21,3963.41L1768.37,4126.26L1649.02,4126.26L1537.7,3750.79Z" style="fill:rgb(40,160,225);fill-rule:nonzero;"/>
    </g>
    <g transform="matrix(0.740756,-0.187835,0.191115,0.753693,36.1954,2.79703)">
        <path d="M441.548,542.015C433.339,537.412 423.371,533.343 413.693,533.53C394.669,533.9 380.035,549.873 369.737,562.063C361.029,572.372 347.023,585.517 339.267,589.948C331.511,594.381 325.416,598.845 322.277,600.568L335.019,600.568C338.528,598.905 349.516,596.78 362.259,582.746C375.001,568.712 398.088,545.458 411.795,546.027C419.548,546.349 423.55,547.985 427.576,551.199C431.248,554.129 434.94,558.371 441.517,564.125C455.306,576.19 457.292,559.589 457.292,559.589C457.292,559.589 455.977,553.283 441.548,542.015Z" style="fill:rgb(20,80,135);stroke:rgb(248,248,248);stroke-width:1.62px;"/>
    </g>
    <g transform="matrix(0.740756,-0.187835,0.191115,0.753693,36.1954,2.79703)">
        <path d="M369.737,562.063C380.035,549.873 394.669,533.9 413.693,533.53C423.371,533.343 433.339,537.412 441.548,542.015C434.631,536.611 426.452,532.045 417.385,530.355C387.836,524.853 371.615,543.455 365.953,548.675C360.55,553.653 344.102,570.158 338.391,574.344C332.68,578.53 327.386,581.978 324.677,588.504C321.969,595.028 322.277,600.568 322.277,600.568C325.416,598.845 331.511,594.381 339.267,589.948C347.023,585.517 361.029,572.372 369.737,562.063Z" style="fill:rgb(40,160,225);stroke:rgb(248,248,248);stroke-width:1.62px;"/>
    </g>
    <g transform="matrix(0.740756,-0.187835,0.191115,0.753693,36.1954,2.79703)">
        <path d="M426.003,585.671C436.223,577.793 455.183,563.142 467.987,575.453C474.754,581.962 476.404,596.068 476.368,608.51C476.901,601.981 476.696,595.931 476.112,590.41C474.818,578.221 464.294,558.278 449.52,558.093C434.745,557.908 426.003,565.356 411.107,575.952C395.685,586.921 368.175,610.996 352.194,625.314C337.022,638.91 324.309,606.478 322.277,600.568L322.277,618.573C322.277,618.573 327.447,633.993 340.375,641.031C342.62,642.255 344.909,642.904 347.219,643.095C351.847,642.239 357.297,639.856 363.706,635.164C387.59,617.682 415.785,593.552 426.003,585.671Z" style="fill:rgb(40,160,225);stroke:rgb(248,248,248);stroke-width:1.62px;"/>
    </g>
    <g transform="matrix(0.740756,-0.187835,0.191115,0.753693,36.1954,2.79703)">
        <path d="M352.194,625.314C352.938,624.648 353.713,623.955 354.504,623.249C340.548,620.082 335.019,600.568 335.019,600.568L322.277,600.568C324.309,606.478 337.022,638.91 352.194,625.314Z" style="fill:rgb(20,80,135);stroke:rgb(248,248,248);stroke-width:1.62px;"/>
    </g>
    <g transform="matrix(0.740756,-0.187835,0.191115,0.753693,36.1954,2.79703)">
        <path d="M467.987,575.453C455.183,563.142 436.223,577.793 426.003,585.671C415.785,593.552 387.59,617.682 363.706,635.164C357.297,639.856 351.847,642.239 347.219,643.095C358.209,644.004 368.538,641.525 378.305,634.351C390.125,625.673 412.41,608.501 432.849,593.664C451.123,580.398 455.483,575.969 459.492,579.33C464.188,583.265 465.146,594.131 464.532,603.488C464.542,603.966 464.607,604.44 464.568,604.916C463.51,617.934 449.205,627.577 443.693,636.497C436.929,647.444 422.579,658.714 414.699,664.272C412.279,665.979 402.499,670.243 398.492,671.053C393.1,672.143 391.865,671.581 386.413,673.069C386.857,672.967 377.756,674.489 377.704,674.499C377.704,674.499 394.238,681.933 399.999,681.032C407.196,679.906 415.234,677.125 422.344,673.132C436.992,664.908 446.979,654.84 446.979,654.84C452.942,648.337 458.801,641.492 464.269,633.342C467.952,627.235 476.155,610.832 476.256,609.778C476.297,609.354 476.335,608.931 476.368,608.51C476.394,599.62 475.559,589.881 472.612,582.67C471.434,579.789 469.919,577.311 467.987,575.453Z" style="fill:rgb(20,80,135);stroke:rgb(248,248,248);stroke-width:1.62px;"/>
    </g>
    <g transform="matrix(0.740756,-0.187835,0.191115,0.753693,36.1954,2.79703)">
        <path d="M462.978,604.006C460.315,604.122 457.342,604.944 454.135,606.939C441.208,614.979 429.327,632.339 417.754,642.063C408.359,649.961 387.097,669.398 367.891,658.808C359.737,654.312 354.945,648.598 351.607,642.941C350.139,643.153 348.675,643.219 347.219,643.101C344.909,642.908 342.62,642.261 340.375,641.038C327.447,634.001 322.277,618.579 322.277,618.579C323.568,624.949 338.391,655.235 358.5,670.199C367.273,674.38 378.653,678.418 391.18,675.42C412.79,670.249 435.099,649.035 444.298,636.633C449.232,629.98 457.101,620.528 465.261,610.001C466.657,608.201 473.432,607.964 475.771,608.836C473.664,607.032 468.447,603.767 462.978,604.006Z" style="fill:rgb(40,160,225);stroke:rgb(248,248,248);stroke-width:1.62px;"/>
    </g>
    <g transform="matrix(0.599442,0,0,0.472962,-657.774,-1594.69)">
        <ellipse cx="2211.27" cy="4119.82" rx="46.558" ry="55.287" style="fill:rgb(20,80,135);"/>
    </g>
    <g transform="matrix(0.599442,0,0,0.472962,-596.551,-1594.69)">
        <ellipse cx="2211.27" cy="4119.82" rx="46.558" ry="55.287" style="fill:rgb(20,80,135);"/>
    </g>
    <g transform="matrix(0.121768,0,0,0.0954548,523.995,4.9061)">
        <path d="M986.923,752.853L986.923,2277.24L1045.12,2276.78L1045.12,3039.87L986.923,3040.33L936.308,3092.04L892.841,3350.78C892.841,3350.78 802.8,3716.21 733.339,3798.39C675.199,3893.47 582.241,3929.55 478.09,3929.55C399.454,3929.55 272.018,3912.01 225.589,3858.53C177.905,3803.85 121.28,3714.43 84.471,3607.45C46.408,3498.1 18.384,3375.08 0.398,3238.39C-18.425,3102.89 -27.836,2951.94 -27.836,2785.53L-27.836,1452.89L414.561,1453.93L414.561,2729.52C414.561,2854.32 411.873,2999.98 430.554,3078.78C449.149,3157.21 441.348,3147.97 478.09,3146.85C549.174,3144.66 533.661,3117.65 535.249,3039.87L535.249,131.936L1003.86,132.398L1003.86,752.853L986.923,752.853Z" style="fill:rgb(20,80,135);fill-rule:nonzero;"/>
    </g>
    <g transform="matrix(0.121768,0,0,0.0954548,523.995,4.9061)">
        <path d="M952.415,3039.87L952.415,2276.78L1247.93,2276.78C1300.63,2276.78 1330.75,2238.69 1338.28,2162.51C1345.39,2118.47 1348.94,2025.04 1348.94,1882.2L1344.41,1454.18L1614.83,1454.18L1619.36,2276.78L1696.53,2276.78L1696.53,3039.87L952.415,3039.87Z" style="fill:rgb(20,80,135);fill-rule:nonzero;"/>
    </g>
    <g transform="matrix(0.121768,0,0,0.0954548,523.995,4.9061)">
        <path d="M1747.98,1633.15L1747.98,1122.83L2246.99,158.901L2582.25,169.377L2084.46,1124.8L2340.22,1114.32C2353.6,1114.32 2361.55,1114.92 2364.06,1116.11C2427.22,1125.61 2483.69,1173.75 2533.46,1260.52C2589.51,1357.99 2634.89,1501.21 2669.61,1690.2C2685.93,1780.54 2697.85,1894.05 2705.38,2030.74L2707.92,2276.78L2794.51,2276.78L2794.51,3039.87L1645.08,3039.87L1645.08,2276.78L2246.99,2279.2L2246.99,2247.03C2246.99,1864.42 2206.41,1660.6 2125.27,1635.57L2101.43,1635.57L1747.98,1633.15Z" style="fill:rgb(20,80,135);fill-rule:nonzero;"/>
    </g>
    <g transform="matrix(0.121768,0,0,0.0954548,523.995,4.9061)">
        <path d="M2743.06,3039.87L2743.06,2276.78L2841.56,2276.78L2841.56,1523.71L3110.09,1523.71L3110.09,2276.78L3211.74,2276.78L3211.74,1482.71L3480.27,1482.71L3480.27,2276.78L3500.97,2276.78C3553.68,2276.78 3584,2238.69 3591.95,2162.51C3598.64,2118.47 3601.99,2025.04 3601.99,1882.2L3601.99,1454.18L3873.03,1454.18L3873.03,2235.78C3873.03,2308.28 3872.19,2361.17 3870.52,2394.46C3869.27,2440.81 3867.38,2482.41 3864.87,2519.26C3861.53,2556.11 3857.76,2589.98 3853.58,2620.89C3847.72,2657.73 3842.08,2688.04 3836.64,2711.81C3813.64,2816.41 3783.1,2896.64 3745.04,2952.51C3706.56,3010.75 3663.06,3039.87 3614.54,3039.87L2743.06,3039.87Z" style="fill:rgb(20,80,135);fill-rule:nonzero;"/>
    </g>
    <g transform="matrix(0.658846,0,0,0.473951,-771.29,-1232)">
        <ellipse cx="2211.27" cy="4119.82" rx="46.558" ry="55.287" style="fill:rgb(40,160,225);"/>
    </g>
    <g transform="matrix(0.658846,0,0,0.473951,-704.001,-1232)">
        <ellipse cx="2211.27" cy="4119.82" rx="46.558" ry="55.287" style="fill:rgb(40,160,225);"/>
    </g>
    <g transform="matrix(0.185642,0,0,0.126274,483.762,371.709)">
        <path d="M744.351,2298.05L744.351,1721.19L1240.23,1721.15C1292.61,1721.15 1286.01,1691.73 1287.56,1634.77C1288.49,1600.45 1292.46,1530.84 1292.46,1422.87L1292.46,1095.71L1600.67,1095.71L1600.67,1690.15C1600.67,1744.96 1600.05,1784.95 1598.8,1810.11C1597.55,1845.15 1595.48,1876.6 1592.57,1904.45C1589.66,1932.31 1585.91,1957.92 1581.34,1981.28C1575.94,2009.13 1570.53,2032.05 1565.13,2050.02C1541.85,2129.09 1511.3,2189.74 1473.47,2231.97C1435.23,2276 1400.9,2298.01 1353.09,2298.01L744.351,2298.05Z" style="fill:rgb(40,160,225);fill-rule:nonzero;"/>
    </g>
    <g transform="matrix(0.182399,0,0,0.0991504,475.412,437.126)">
        <path d="M1970.81,2609.93L1972.09,3123.35C2380.74,3123.35 2461.19,2808.67 2461.19,2298.01L2461.19,1544.45C2461.19,1025.51 2282.41,735.677 2090.85,735.677C1896.75,735.677 1724.35,1091.76 1724.35,1544.45C1724.35,1892.25 1816.3,2298.01 2043.61,2298.01L2223.66,2298.01C2223.66,2535.4 2189.18,2609.93 1970.81,2609.93ZM1961.88,1549.97C1961.88,1351.23 2029.56,1249.1 2097.24,1249.1C2161.09,1249.1 2223.66,1342.95 2223.66,1516.85L2223.66,1801.16L2079.36,1801.16C1998.91,1801.16 1961.88,1679.7 1961.88,1549.97Z" style="fill:rgb(40,160,225);fill-rule:nonzero;"/>
    </g>
    <g transform="matrix(0.133835,0,0,0.0954548,527.055,371.713)">
        <path d="M945.67,752.853L945.67,2277.24L1010.14,2276.82L1010.14,3039.9L945.67,3040.33L936.308,3092.04L892.841,3350.78C892.841,3350.78 802.8,3716.21 733.339,3798.39C675.199,3893.47 582.241,3929.55 478.09,3929.55C399.454,3929.55 272.018,3912.01 225.589,3858.53C177.905,3803.85 121.28,3714.43 84.471,3607.45C46.408,3498.1 18.384,3375.08 0.398,3238.39C-18.425,3102.89 -27.836,2951.94 -27.836,2785.53L-20.364,1449.43L396.696,1449.54L389.224,2728.58C389.224,2853.39 370.543,2999.98 389.224,3078.78C407.819,3157.21 441.348,3147.97 478.09,3146.85C549.174,3144.66 533.661,3117.65 535.249,3039.87L535.249,131.936L962.61,132.398L962.61,752.853L945.67,752.853Z" style="fill:rgb(40,160,225);fill-rule:nonzero;"/>
    </g>
</svg>